<svg height="512pt" viewBox="0 0 512 512.00047" width="512pt" xmlns="http://www.w3.org/2000/svg"><path d="m417.023438 502h84.503906v-39.726562c0-13.378907-10.84375-24.222657-24.222656-24.222657h-442.582032c-13.375 0-24.222656 10.84375-24.222656 24.222657v39.726562h287.847656" fill="#e39a75"/><path d="m361.6875 512c-.648438 0-1.308594-.070312-1.957031-.199219-.632813-.121093-1.261719-.320312-1.871094-.570312-.601563-.25-1.179687-.5625-1.71875-.921875-.554687-.359375-1.0625-.777344-1.523437-1.238282-.460938-.460937-.878907-.972656-1.25-1.519531-.359376-.542969-.667969-1.121093-.917969-1.730469-.25-.601562-.441407-1.230468-.570313-1.871093-.132812-.640625-.191406-1.300781-.191406-1.949219s.0625-1.308594.191406-1.949219.320313-1.269531.570313-1.871093c.25-.609376.558593-1.1875.917969-1.730469.371093-.550781.789062-1.058594 1.25-1.519531 2.320312-2.320313 5.773437-3.390626 9.023437-2.730469.636719.121093 1.269531.320312 1.867187.570312.609376.25 1.191407.5625 1.730469.921875.550781.359375 1.0625.777344 1.519531 1.238282.460938.460937.882813.96875 1.242188 1.519531.359375.542969.667969 1.121093.917969 1.730469.25.601562.441406 1.230468.570312 1.871093.128907.640625.199219 1.300781.199219 1.949219s-.070312 1.308594-.199219 1.949219c-.128906.640625-.320312 1.269531-.570312 1.871093-.25.609376-.558594 1.1875-.917969 1.730469-.359375.546875-.78125 1.058594-1.242188 1.519531-.457031.460938-.96875.878907-1.519531 1.238282-.539062.359375-1.117187.671875-1.730469.921875-.601562.25-1.230468.449219-1.867187.570312-.640625.128907-1.300781.199219-1.953125.199219zm0 0"/><path d="m220.542969 221.734375h-210.542969c-5.523438 0-10-4.476563-10-10s4.476562-10 10-10h210.542969c5.523437 0 10 4.476563 10 10s-4.476563 10-10 10zm0 0"/><path d="m224.671875 184.898438h-214.671875c-5.523438 0-10-4.476563-10-10 0-5.523438 4.476562-10 10-10h214.671875c9.667969 0 17.53125-7.863282 17.53125-17.53125 0-9.664063-7.863281-17.527344-17.53125-17.527344-5.523437 0-10-4.480469-10-10 0-5.523438 4.476563-10.003906 10-10.003906 20.695313 0 37.53125 16.839843 37.53125 37.53125 0 20.695312-16.835937 37.53125-37.53125 37.53125zm0 0"/><path d="m91.675781 314.507812c-5.523437 0-10.003906-4.480468-10.003906-10 0-5.523437 4.480469-10.003906 10.003906-10.003906 9.664063 0 17.527344-7.863281 17.527344-17.527344 0-9.667968-7.863281-17.53125-17.527344-17.53125h-81.675781c-5.523438 0-10-4.476562-10-10 0-5.523437 4.476562-10 10-10h81.675781c20.691407 0 37.53125 16.835938 37.53125 37.53125-.003906 20.691407-16.839843 37.53125-37.53125 37.53125zm0 0"/><path d="m300.726562 317.160156-13.152343 43.679688 47.644531-2.046875 7.816406-27.597657" fill="#d17c68"/><path d="m288.800781 210.816406-81.667969 72.632813 233.5 77.460937-22.066406-107.046875" fill="#90e36a"/><path d="m418.566406 253.863281 18.550782 6.15625-20.738282-100.597656-69.375-23.015625-76.75 68.257812 73.976563 24.539063" fill="#50b658"/><path d="m409.257812 64.820312-75.542968 67.179688 95.953125 31.832031zm0 0" fill="#90e36a"/><path d="m382.660156 251.953125c-.648437 0-1.308594-.070313-1.949218-.199219-.640626-.128906-1.269532-.320312-1.871094-.570312-.609375-.25-1.1875-.558594-1.730469-.917969-.546875-.359375-1.058594-.78125-1.519531-1.242187-.460938-.457032-.878906-.96875-1.238282-1.519532-.359374-.539062-.671874-1.117187-.921874-1.730468-.25-.597657-.4375-1.230469-.570313-1.867188-.128906-.640625-.199219-1.300781-.199219-1.953125 0-.648437.070313-1.308594.199219-1.957031.132813-.632813.320313-1.261719.570313-1.871094.25-.601562.5625-1.179688.921874-1.71875.359376-.550781.777344-1.0625 1.238282-1.523438.460937-.460937.972656-.878906 1.519531-1.25.542969-.359374 1.121094-.667968 1.730469-.917968.601562-.25 1.230468-.441406 1.871094-.570313 3.238281-.652343 6.699218.410157 9.019531 2.738281.460937.460938.882812.972657 1.25 1.523438.359375.539062.671875 1.117188.921875 1.71875.238281.609375.4375 1.238281.558594 1.871094.128906.648437.199218 1.308594.199218 1.957031 0 .652344-.070312 1.3125-.199218 1.953125-.121094.636719-.316407 1.269531-.566407 1.867188-.25.609374-.5625 1.191406-.910156 1.730468-.371094.550782-.792969 1.0625-1.25 1.519532-.460937.460937-.972656.882812-1.523437 1.242187-.539063.359375-1.121094.667969-1.71875.917969-.609376.25-1.242188.441406-1.871094.570312-.652344.128906-1.3125.199219-1.960938.199219zm0 0"/><path d="m291.617188 409.070312v60.953126h44.574218v-77.898438zm0 0" fill="#d17c68"/><path d="m214.292969 72.757812c-19.574219 19.574219-60.589844 10.300782-60.589844 10.300782s-9.273437-41.011719 10.304687-60.589844c19.578126-19.574219 60.589844-10.300781 60.589844-10.300781s9.273438 41.011719-10.304687 60.589843zm0 0" fill="#90e36a"/><path d="m477.304688 428.050781h-131.113282v-35.925781c0-3.289062-1.617187-6.367188-4.320312-8.234375-2.707032-1.863281-6.160156-2.28125-9.234375-1.113281l-44.574219 16.945312c-3.878906 1.476563-6.445312 5.195313-6.445312 9.347656v18.980469h-246.894532c-18.871094 0-34.222656 15.351563-34.222656 34.222657v39.726562c0 5.523438 4.476562 10 10 10h287.847656c5.523438 0 10.003906-4.476562 10.003906-10s-4.480468-10-10.003906-10h-277.84375v-29.726562c0-7.839844 6.378906-14.222657 14.222656-14.222657h246.890626v11.972657h-199.414063c-5.523437 0-10 4.480468-10 10 0 5.523437 4.476563 10.003906 10 10.003906h347.621094c5.523437 0 10-4.480469 10-10.003906 0-5.519532-4.476563-10-10-10h-83.632813v-11.972657h131.113282c7.839843 0 14.21875 6.378907 14.21875 14.222657v29.726562h-74.5c-5.523438 0-10 4.476562-10 10 0 5.519531 4.476562 10 10 10h84.503906c5.519531 0 10-4.480469 10-10v-39.726562c0-18.871094-15.351563-34.222657-34.222656-34.222657zm-175.6875-12.082031 24.574218-9.34375v53.398438h-24.574218zm0 0"/><path d="m267.105469 214.15625 2.109375.699219-68.730469 61.121093c-2.667969 2.375-3.867187 5.992188-3.144531 9.492188.71875 3.496094 3.253906 6.347656 6.644531 7.472656l85.09375 28.226563-11.078125 36.789062c-.933594 3.101563-.308594 6.460938 1.679688 9.019531 1.898437 2.445313 4.816406 3.863282 7.894531 3.863282.144531 0 .289062-.003906.433593-.007813l47.644532-2.050781c4.308594-.183594 8.015625-3.113281 9.191406-7.265625l5.65625-19.972656 86.984375 28.855469c1.03125.34375 2.09375.511718 3.148437.511718 2.414063 0 4.789063-.875 6.648438-2.527344 2.667969-2.375 3.867188-5.992187 3.148438-9.492187l-18.570313-90.078125 2.109375.699219c1.027344.339843 2.09375.507812 3.148438.507812 2.414062 0 4.789062-.875 6.644531-2.527343 2.671875-2.375 3.871093-5.992188 3.148437-9.492188l-17.351562-84.167969h.105468c2.414063 0 4.789063-.875 6.648438-2.527343 2.667969-2.375 3.871094-5.992188 3.148438-9.492188l-20.410157-99.007812c-.71875-3.5-3.253906-6.351563-6.644531-7.476563-3.390625-1.121094-7.125-.355469-9.796875 2.019531l-75.539063 67.179688c-2.671874 2.375-3.871093 5.996094-3.148437 9.492187.507813 2.472657 1.921875 4.621094 3.902344 6.0625l-64.214844 57.109375c-2.671875 2.375-3.871094 5.996094-3.148437 9.492188.71875 3.5 3.253906 6.347656 6.644531 7.472656zm60.460937 134.953125-26.355468 1.132813 6.855468-22.773438 23.429688 7.773438zm75.394532-265.304687 13.414062 65.078124-63.070312-20.921874zm-53.625 63.914062 58.414062 19.378906 16.074219 77.972656-6.527344.140626c-5.597656.121093-9.699219 5.328124-8.5 10.792968.003906.011719.003906.019532.007813.027344l18.535156 89.929688-200.617188-66.550782 64.414063-57.28125 49.945312 16.566406c5.238281 1.738282 10.902344-1.101562 12.640625-6.34375 1.738282-5.242187-1.101562-10.902343-6.34375-12.640624l-55.359375-18.363282c-.035156-.011718-.066406-.023437-.097656-.03125l-2.078125-.691406zm0 0"/><path d="m142.902344 103.863281c2.558594 0 5.117187-.976562 7.070312-2.929687l7.105469-7.105469c4.347656.660156 10.859375 1.398437 18.304687 1.398437 14.90625 0 33.542969-2.957031 45.984376-15.398437 23.207031-23.207031 13.414062-67.972656 12.984374-69.867187-.851562-3.761719-3.789062-6.699219-7.546874-7.546876-1.894532-.429687-46.660157-10.222656-69.867188 12.984376-18.65625 18.652343-15.988281 51.234374-14 64.285156l-7.105469 7.105468c-3.90625 3.90625-3.90625 10.238282 0 14.144532 1.953125 1.953125 4.511719 2.929687 7.070313 2.929687zm28.175781-74.320312c10.632813-10.636719 32.214844-10.382813 44.882813-8.722657 1.683593 12.652344 1.953124 34.175782-8.738282 44.863282-7.4375 7.433594-20.226562 9.546875-31.578125 9.578125l13.222657-13.222657c3.902343-3.90625 3.902343-10.238281 0-14.140624-3.90625-3.90625-10.238282-3.90625-14.144532 0l-13.257812 13.257812c.015625-11.339844 2.128906-24.132812 9.613281-31.613281zm0 0"/></svg>