<svg height="498pt" viewBox="0 0 498 498.03232" width="498pt" xmlns="http://www.w3.org/2000/svg"><path d="m121.5625 418.4375c3.777344-13.335938-.003906-27.675781-9.871094-37.410156-9.863281-9.738282-24.25-13.328125-37.535156-9.371094-13.285156 3.953125-23.363281 14.832031-26.296875 28.378906-24.144531.574219-44.269531 18.660156-47.410156 42.609375s11.640625 46.613281 34.824219 53.394531c23.179687 6.777344 47.84375-4.347656 58.105468-26.214843 13.875 5.648437 29.78125-.003907 36.984375-13.140625 7.203125-13.136719 3.417969-29.585938-8.804687-38.25zm0 0" fill="#4c5770"/><path d="m29.019531 460.011719c.003907-26.609375 21.246094-48.347657 47.847657-48.972657 3.589843-16.710937 17.894531-28.96875 34.960937-29.957031-9.851563-9.808593-24.277344-13.453125-37.609375-9.503906-13.328125 3.953125-23.4375 14.867187-26.351562 28.460937-26.445313.617188-47.625 22.109376-47.8476568 48.554688-.2265622 26.449219 20.5820308 48.300781 47.0117188 49.367188-11.410156-9.296876-18.023438-23.234376-18.011719-37.949219zm0 0" fill="#7e8699"/><path d="m460.019531 357.011719c-8.890625-.011719-17.5 3.105469-24.320312 8.808593-10.40625-8.285156-23.3125-12.792968-36.609375-12.789062-1.34375 0-2.675782.0625-4 .148438-6.546875-15.921876-22.761719-25.664063-39.890625-23.976563-17.132813 1.6875-31.132813 14.40625-34.449219 31.300781-3.316406 16.890625 4.835938 33.957032 20.058594 41.996094-.933594 5.675781-1.023438 11.460938-.265625 17.160156-15.34375-2.847656-30.890625 3.847656-39.363281 16.953125-8.472657 13.105469-8.199219 30.027344.699218 42.851563 8.898438 12.820312 24.652344 19.003906 39.894532 15.652344 15.242187-3.351563 26.957031-15.570313 29.65625-30.941407 2.800781 1.484375 5.71875 2.738281 8.722656 3.753907 1.152344 13.085937 9.960937 24.246093 22.421875 28.40625 12.464843 4.160156 26.207031.527343 34.992187-9.242188 8.785156-9.773438 10.933594-23.824219 5.472656-35.777344 4.90625-5.480468 8.742188-11.835937 11.308594-18.726562 14.09375 2.117187 28.1875-3.824219 36.507813-15.398438 8.320312-11.570312 9.464843-26.824218 2.964843-39.507812-6.496093-12.683594-19.546874-20.664063-33.800781-20.671875zm0 0" fill="#7e8699"/><path d="m348.019531 365.011719c15.8125 0 30.058594 9.542969 36.074219 24.167969 1.320312-.085938 2.652344-.148438 4-.148438 13.300781-.003906 26.207031 4.503906 36.609375 12.789062 10.164063-8.472656 24.003906-11.046874 36.53125-6.796874 12.53125 4.253906 21.945313 14.714843 24.855469 27.625 14.929687-14.085938 15.972656-37.484376 2.355468-52.839844-13.617187-15.359375-36.972656-17.125-52.742187-3.988282-10.402344-8.285156-23.308594-12.792968-36.609375-12.789062-1.34375 0-2.671875.0625-4 .148438-7.65625-18.664063-28.28125-28.410157-47.558594-22.472657-19.28125 5.9375-30.851562 25.597657-26.679687 45.335938 7.265625-7.082031 17.015625-11.042969 27.164062-11.03125zm0 0" fill="#394154"/><path d="m135.019531 50.011719c.007813-23.402344-16.21875-43.675781-39.054687-48.800781-22.835938-5.121094-46.167969 6.28125-56.15625 27.441406-14.648438-5.042969-30.726563 1.894531-37.105469 16.011718-6.378906 14.117188-.960937 30.769532 12.503906 38.429688-12.488281 11.277344-17.257812 28.800781-12.199219 44.847656 5.058594 16.046875 19.011719 27.667969 35.710938 29.746094 16.699219 2.074219 33.070312-5.78125 41.902344-20.105469 14.707031 5.734375 31.433594 1.0625 41.046875-11.457031s9.804687-29.886719.46875-42.613281c8.308593-9.179688 12.902343-21.121094 12.882812-33.5zm0 0" fill="#4c5770"/><path d="m37.019531 129.011719c-.011719-12.171875 5.144531-23.773438 14.191407-31.917969-13.46875-7.660156-18.886719-24.3125-12.507813-38.429688 6.378906-14.117187 22.457031-21.054687 37.105469-16.011718 8.066406-17.0625 25.046875-28.128906 43.914062-28.617188-11.59375-11.1875-27.863281-16.105468-43.710937-13.207031-15.847657 2.898437-29.324219 13.257813-36.203125 27.824219-14.648438-5.042969-30.726563 1.894531-37.105469 16.011718-6.378906 14.117188-.960937 30.769532 12.503906 38.429688-13.203125 11.925781-17.703125 30.746094-11.316406 47.351562 6.386719 16.605469 22.339844 27.566407 40.128906 27.566407 1.375 0 2.726563-.085938 4.066407-.210938-7.136719-7.890625-11.078126-18.152343-11.066407-28.789062zm0 0" fill="#7e8699"/><path d="m444.019531 118.511719c0-12.890625-6.988281-24.769531-18.257812-31.03125-11.269531-6.257813-25.046875-5.917969-35.992188.890625-10.195312-9.257813-23.476562-14.378906-37.25-14.359375-2.214843.003906-4.433593.140625-6.636719.410156-1.574218-19.046875-17.222656-33.859375-36.324218-34.394531-19.101563-.53125-35.550782 13.386718-38.1875 32.3125-2.636719 18.929687 9.382812 36.8125 27.902344 41.519531-.230469.792969-.449219 1.589844-.644532 2.394531-11.945312 3.394532-20.914062 13.300782-23.105468 25.523438-2.195313 12.222656 2.769531 24.625 12.789062 31.960937 10.023438 7.335938 23.347656 8.320313 34.335938 2.535157 6.707031 4.300781 14.265624 7.09375 22.160156 8.191406 3.242187 16.222656 16.023437 28.84375 32.289062 31.878906 16.265625 3.03125 32.738282-4.132812 41.609375-18.097656 8.871094-13.964844 8.355469-31.921875-1.300781-45.355469 15.667969-4.058594 26.613281-18.195313 26.613281-34.378906zm0 0" fill="#4c5770"/><path d="m408.519531 83.011719c-6.628906-.007813-13.125 1.847656-18.75 5.359375-10.195312-9.257813-23.476562-14.378906-37.25-14.359375-2.214843.003906-4.433593.140625-6.636719.410156-1.710937-19.996094-18.859374-35.097656-38.910156-34.269531-20.046875.828125-35.894531 17.292968-35.953125 37.359375 0 .980469.042969 1.949219.117188 2.910156 10.929687-8.128906 25.410156-9.695313 37.820312-4.085937 12.414063 5.609374 20.808594 17.511718 21.925781 31.085937 2.203126-.269531 4.421876-.40625 6.636719-.410156 13.773438-.019531 27.054688 5.101562 37.25 14.359375 10.359375-6.445313 23.300781-7.121094 34.273438-1.789063 10.972656 5.335938 18.4375 15.929688 19.765625 28.058594 12.722656-8.867187 18.21875-24.964844 13.578125-39.761719-4.644531-14.796875-18.359375-24.863281-33.867188-24.867187zm0 0" fill="#7e8699"/><path d="m177.019531 406.511719c0 8.007812-6.488281 14.5-14.5 14.5-8.007812 0-14.5-6.492188-14.5-14.5 0-8.007813 6.492188-14.5 14.5-14.5 8.011719 0 14.5 6.492187 14.5 14.5zm0 0" fill="#a8b3cc"/><path d="m487.019531 30.011719c0 9.941406-8.058593 18-18 18-9.9375 0-18-8.058594-18-18 0-9.941407 8.0625-18 18-18 9.941407 0 18 8.058593 18 18zm0 0" fill="#a8b3cc"/><path d="m88.019531 189.511719c0 7.457031-6.042969 13.5-13.5 13.5-7.453125 0-13.5-6.042969-13.5-13.5s6.046875-13.5 13.5-13.5c7.457031 0 13.5 6.042969 13.5 13.5zm0 0" fill="#4c5770"/><path d="m465.019531 235.011719c0 7.179687-5.820312 13-13 13-7.179687 0-13-5.820313-13-13 0-7.179688 5.820313-13 13-13 7.179688 0 13 5.820312 13 13zm0 0" fill="#4c5770"/><path d="m292.519531 232.011719c-.089843 0-.175781.003906-.269531.007812-5.621094-12.453125-16.886719-21.445312-30.273438-24.160156-13.390624-2.71875-27.269531 1.171875-37.300781 10.449219-2.738281-3.300782-5.929687-6.199219-9.484375-8.601563 5.089844-9.410156 3.183594-21.070312-4.640625-28.367187s-19.589843-8.390625-28.621093-2.65625c-9.035157 5.734375-13.054688 16.84375-9.78125 27.03125-11.996094 5.203125-21.140626 15.355468-25.070313 27.824218-20.203125-9.890624-44.609375-3.15625-56.878906 15.699219-12.265625 18.851563-8.539063 43.894531 8.6875 58.359375 17.226562 14.460938 42.539062 13.796875 58.984375-1.550781 3.890625 9.648437 13.25 15.964844 23.648437 15.964844.527344 0 1.050781-.023438 1.570313-.054688 5.289062 15.46875 19.765625 25.910157 36.113281 26.046875 5.78125 15.335938 21.683594 24.367188 37.816406 21.476563 16.132813-2.894531 27.90625-16.886719 28-33.277344.089844-16.390625-11.527343-30.515625-27.625-33.585937-.667969-3.695313-1.875-7.269532-3.585937-10.613282 12.742187-.074218 24.773437-5.871094 32.769531-15.792968 8.449219 2.316406 17.472656-.484376 23.128906-7.171876 5.65625-6.691406 6.914063-16.054687 3.226563-24-3.6875-7.945312-11.652344-13.03125-20.414063-13.027343zm0 0" fill="#7e8699"/><g fill="#394154"><path d="m306.859375 237.171875c-.101563-.082031-.199219-.15625-.300781-.234375.105468.074219.203125.15625.300781.234375zm0 0"/><path d="m306.257812 236.695312c-.257812-.199218-.519531-.390624-.785156-.578124.261719.195312.527344.382812.785156.578124zm0 0"/><path d="m110.019531 294.511719c.003907-15.355469 7.917969-29.621094 20.945313-37.75 13.023437-8.128907 29.320312-8.972657 43.113281-2.226563 3.929687-12.46875 13.078125-22.621094 25.070313-27.824218-2.101563-6.546876-1.234376-13.683594 2.375-19.535157 3.605468-5.851562 9.597656-9.828125 16.390624-10.886719-.851562-8.964843-6.753906-16.652343-15.191406-19.796874-8.4375-3.144532-17.929687-1.191407-24.441406 5.03125-6.507812 6.222656-8.890625 15.617187-6.132812 24.1875-11.996094 5.203124-21.140626 15.355468-25.070313 27.824218-15.183594-7.417968-33.257813-5.597656-46.65625 4.699219-13.394531 10.296875-19.808594 27.292969-16.546875 43.871094s15.632812 29.882812 31.929688 34.335937c-3.796876-6.683594-5.792969-14.242187-5.785157-21.929687zm0 0"/><path d="m259.019531 252.011719c0 6.625-5.371093 12-12 12-6.625 0-12-5.375-12-12 0-6.628907 5.375-12 12-12 6.628907 0 12 5.371093 12 12zm0 0"/><path d="m223.019531 297.011719c0 8.285156-6.714843 15-15 15-8.28125 0-15-6.714844-15-15 0-8.285157 6.71875-15 15-15 8.285157 0 15 6.714843 15 15zm0 0"/></g><path d="m108.019531 98.511719c0 4.140625-3.355469 7.5-7.5 7.5-4.140625 0-7.5-3.359375-7.5-7.5 0-4.144531 3.359375-7.5 7.5-7.5 4.144531 0 7.5 3.355469 7.5 7.5zm0 0" fill="#7e8699"/><path d="m390.019531 430.511719c0 6.351562-5.148437 11.5-11.5 11.5-6.347656 0-11.5-5.148438-11.5-11.5 0-6.351563 5.152344-11.5 11.5-11.5 6.351563 0 11.5 5.148437 11.5 11.5zm0 0" fill="#394154"/><path d="m423.019531 425.011719c0 3.867187-3.132812 7-7 7-3.863281 0-7-3.132813-7-7 0-3.867188 3.136719-7 7-7 3.867188 0 7 3.132812 7 7zm0 0" fill="#394154"/><path d="m114.019531 436.511719c0-3.039063-2.910156-5.5-6.5-5.5-3.589843 0-6.5 2.460937-6.5 5.5 0 3.035156 2.910157 5.5 6.5 5.5 3.589844 0 6.5-2.464844 6.5-5.5zm0 0" fill="#7e8699"/><path d="m323.019531 145.511719c0 5.246093-4.25 9.5-9.5 9.5-5.246093 0-9.5-4.253907-9.5-9.5 0-5.246094 4.253907-9.5 9.5-9.5 5.25 0 9.5 4.253906 9.5 9.5zm0 0" fill="#fff"/><path d="m393.769531 171.285156c-6.214843-3.589844-13.382812-2.816406-16.007812 1.726563-2.621094 4.542969.292969 11.136719 6.507812 14.726562 6.21875 3.589844 13.386719 2.816407 16.011719-1.726562 2.621094-4.542969-.292969-11.136719-6.511719-14.726563zm0 0" fill="#fff"/><path d="m422.019531 470.011719c0 3.3125-2.683593 6-6 6-3.3125 0-6-2.6875-6-6s2.6875-6 6-6c3.316407 0 6 2.6875 6 6zm0 0" fill="#fff"/><path d="m330.441406 456.402344c-3.050781-3.921875-8.175781-5.042969-11.445312-2.5-3.269532 2.542968-3.445313 7.785156-.394532 11.710937 3.050782 3.921875 8.175782 5.042969 11.445313 2.5s3.445313-7.785156.394531-11.710937zm0 0" fill="#fff"/></svg>