<svg height="512" viewBox="0 0 512 512" width="512" xmlns="http://www.w3.org/2000/svg" xmlns:xlink="http://www.w3.org/1999/xlink"><linearGradient id="linear-gradient" gradientUnits="userSpaceOnUse" x1="258.083" x2="258.083" y1="382.175" y2="129.826"><stop offset="0" stop-color="#bdc3c7"/><stop offset=".182" stop-color="#c8cdd1"/><stop offset=".695" stop-color="#e2e7e8"/><stop offset="1" stop-color="#ecf0f1"/></linearGradient><linearGradient id="linear-gradient-2" x1="97.769" x2="97.769" xlink:href="#linear-gradient" y1="238.545" y2="206.103"/><linearGradient id="linear-gradient-3" x1="368.754" x2="368.754" xlink:href="#linear-gradient" y1="302.685" y2="270.244"/><linearGradient id="linear-gradient-4" x1="46.56" x2="46.56" xlink:href="#linear-gradient" y1="231.303" y2="213.345"/><linearGradient id="linear-gradient-5" x1="417.882" x2="417.882" xlink:href="#linear-gradient" y1="295.444" y2="277.485"/><linearGradient id="linear-gradient-6" x1="394.605" x2="394.605" xlink:href="#linear-gradient" y1="168.039" y2="150.081"/><linearGradient id="linear-gradient-7" x1="97.769" x2="97.769" xlink:href="#linear-gradient" y1="362.44" y2="344.482"/><g id="Layer_16" data-name="Layer 16"><path d="m442.876 192.913h-109.667a31.544 31.544 0 0 0 31.543-31.543 31.543 31.543 0 0 0 -31.543-31.544h-208.109a31.544 31.544 0 0 0 -31.54 31.544 31.544 31.544 0 0 0 31.54 31.543h36.653a31.544 31.544 0 1 0 0 63.087h-88.463a31.544 31.544 0 0 0 0 63.087h88.467a31.544 31.544 0 1 0 0 63.088h224.582a31.544 31.544 0 0 0 0-63.088h-83.777a31.544 31.544 0 0 0 0-63.087h140.314a31.544 31.544 0 1 0 0-63.087z" fill="url(#linear-gradient)"/><path d="m125.1 147.758h208.109a31.544 31.544 0 0 1 30.232 22.578 31.516 31.516 0 0 0 -30.232-40.511h-208.109a31.513 31.513 0 0 0 -30.231 40.511 31.541 31.541 0 0 1 30.231-22.578z" fill="#f9f9f9"/><path d="m386.338 360.45h-224.581a31.526 31.526 0 0 1 -29.583-20.682 31.471 31.471 0 0 0 29.583 42.406h224.581a31.473 31.473 0 0 0 29.584-42.406 31.528 31.528 0 0 1 -29.584 20.682z" fill="#abafb2"/><circle cx="117.878" cy="162.753" fill="#f9f9f9" r="7.583"/><circle cx="137.621" cy="157.983" fill="#f9f9f9" r="3.812"/><circle cx="97.769" cy="222.324" fill="url(#linear-gradient-2)" r="16.221"/><circle cx="368.754" cy="286.465" fill="url(#linear-gradient-3)" r="16.221"/><circle cx="46.56" cy="222.324" fill="url(#linear-gradient-4)" r="8.979"/><circle cx="417.882" cy="286.465" fill="url(#linear-gradient-5)" r="8.979"/><circle cx="394.605" cy="159.06" fill="url(#linear-gradient-6)" r="8.979"/><circle cx="97.769" cy="353.461" fill="url(#linear-gradient-7)" r="8.979"/></g></svg>