<svg id="flat_new" height="512" viewBox="0 0 64 64" width="512" xmlns="http://www.w3.org/2000/svg" data-name="flat new"><circle cx="15" cy="53" fill="#dbe8e8" r="6"/><circle cx="32" cy="46" fill="#f0fafa" r="17"/><circle cx="32" cy="22" fill="#f0fafa" r="11"/><path d="m49 46a16.9985 16.9985 0 0 1 -17 17 18.1637 18.1637 0 0 1 -1.82-.1 16.9917 16.9917 0 0 0 7.2-31.3 16.37 16.37 0 0 0 -1.84-1 9.8576 9.8576 0 0 0 1.07-.97 10.9766 10.9766 0 0 0 -6.26-18.49 11.2432 11.2432 0 0 1 1.65-.14 10.9988 10.9988 0 0 1 6.98 19.5 16.9891 16.9891 0 0 1 10.02 15.5z" fill="#e8f3f3"/><circle cx="32" cy="53" fill="#e6443b" r="1.5"/><circle cx="32" cy="47" fill="#e6443b" r="1.5"/><circle cx="32" cy="41" fill="#e6443b" r="1.5"/><circle cx="27" cy="21" fill="#37404e" r="1"/><circle cx="35" cy="21" fill="#37404e" r="1"/><path d="m32 29.75a.75.75 0 0 1 0-1.5 3.2538 3.2538 0 0 0 3.25-3.25.75.75 0 0 1 1.5 0 4.7555 4.7555 0 0 1 -4.75 4.75z" fill="#37404e"/><g fill="#f0fafa"><circle cx="15" cy="6" r="2"/><circle cx="7" cy="23" r="2"/><circle cx="52" cy="7" r="2"/></g><circle cx="32" cy="4.5" fill="#a3e039" r="2.5"/><circle cx="57" cy="31" fill="#f0fafa" r="2"/><path d="m54.9756 63c.0066-.0812.0244-.1591.0244-.2421a2.9932 2.9932 0 0 0 -1.9468-2.8 4.49 4.49 0 1 0 -7.9946-3.9347 4.4843 4.4843 0 0 0 -3.5086 6.9768z" fill="#f0fafa"/><path d="m21.9907 57.7894a4.6663 4.6663 0 0 0 -.1625-1.5406 4.4894 4.4894 0 0 0 -8.56-.2254 4.4843 4.4843 0 0 0 -3.5082 6.9766h13.4252a8.6216 8.6216 0 0 1 -1.1945-5.2106z" fill="#e8f3f3"/><circle cx="20" cy="35" fill="#a3e039" r="2.5"/><circle cx="44" cy="35" fill="#a3e039" r="2.5"/><path d="m44 33.25a.75.75 0 0 1 -.75-.75v-3a.75.75 0 0 1 1.5 0v3a.75.75 0 0 1 -.75.75z" fill="#be321e"/><path d="m28.4919 23.5081-4.4919 4.4919 6.2011-1.378a1.85 1.85 0 0 0 1.0789-2.9157 1.85 1.85 0 0 0 -2.7881-.1982z" fill="#f0922f"/><path d="m20 33.25a.75.75 0 0 1 -.75-.75v-3a.75.75 0 0 1 1.5 0v3a.75.75 0 0 1 -.75.75z" fill="#be321e"/><path d="m18 20v7.5a2 2 0 0 0 2 2 2 2 0 0 0 2-2v-5.5a10 10 0 0 1 10-10 10 10 0 0 1 10 10v5.5a2 2 0 0 0 2 2 2 2 0 0 0 2-2v-7.5a14 14 0 0 0 -14-14 14 14 0 0 0 -14 14z" fill="#e6443b"/></svg>