<svg height="512" viewBox="0 0 64 64" width="512" xmlns="http://www.w3.org/2000/svg"><g id="_13-snow" data-name="13-snow"><path d="m62.026 17.634-1.845-1.066 1.556-.77a1 1 0 0 0 -.886-1.793l-2.751 1.361-4.1-2.366 4.1-2.366 2.751 1.366a1 1 0 0 0 .886-1.793l-1.556-.77 1.845-1.066a1 1 0 1 0 -1-1.732l-1.845 1.061.111-1.733a1 1 0 0 0 -.934-1.067.98.98 0 0 0 -1.062.934l-.196 3.066-4.1 2.368v-4.733l2.555-1.7a1 1 0 0 0 -1.11-1.664l-1.445.961v-2.132a1 1 0 0 0 -2 0v2.132l-1.445-.964a1 1 0 0 0 -1.11 1.664l2.555 1.703v4.733l-4.1-2.368-.2-3.063a.99.99 0 0 0 -1.058-.937 1 1 0 0 0 -.934 1.062l.111 1.738-1.845-1.066a1 1 0 1 0 -1 1.732l1.845 1.066-1.556.77a1 1 0 0 0 .886 1.798l2.751-1.366 4.1 2.366-4.1 2.366-2.752-1.361a1 1 0 0 0 -.886 1.793l1.556.77-1.845 1.066a1 1 0 1 0 1 1.732l1.846-1.066-.111 1.733a1 1 0 0 0 .934 1.062h.065a1 1 0 0 0 1-.936l.2-3.063 4.093-2.364v4.733l-2.555 1.7a1 1 0 0 0 1.11 1.664l1.445-.961v2.132a1 1 0 0 0 2 0v-2.132l1.445.964a1 1 0 1 0 1.11-1.664l-2.555-1.703v-4.733l4.1 2.368.2 3.063a1 1 0 0 0 1 .936h.065a1 1 0 0 0 .934-1.062l-.118-1.737 1.845 1.065a1 1 0 1 0 1-1.732z" fill="#7cc9d1"/><path d="m59.893 49.134-2.161-1.248 1.85-.915a1 1 0 0 0 -.887-1.793l-3.045 1.506-4.65-2.684 4.65-2.684 3.05 1.506a1 1 0 0 0 .887-1.793l-1.85-.915 2.161-1.248a1 1 0 0 0 -1-1.732l-2.161 1.247.132-2.06a1 1 0 0 0 -.933-1.062.985.985 0 0 0 -1.063.933l-.218 3.391-4.655 2.685v-5.368l2.827-1.885a1 1 0 0 0 -1.109-1.664l-1.718 1.144v-2.495a1 1 0 0 0 -2 0v2.495l-1.718-1.145a1 1 0 0 0 -1.109 1.664l2.827 1.886v5.369l-4.65-2.685-.218-3.391a.989.989 0 0 0 -1.063-.933 1 1 0 0 0 -.933 1.062l.132 2.06-2.161-1.247a1 1 0 0 0 -1 1.732l2.161 1.248-1.85.915a1 1 0 0 0 .887 1.793l3.045-1.506 4.65 2.683-4.65 2.684-3.045-1.506a1 1 0 0 0 -.887 1.793l1.85.915-2.161 1.248a1 1 0 1 0 1 1.732l2.161-1.247-.132 2.06a1 1 0 0 0 .933 1.062h.066a1 1 0 0 0 1-.935l.218-3.391 4.647-2.683v5.368l-2.827 1.885a1 1 0 0 0 1.109 1.664l1.718-1.144v2.495a1 1 0 0 0 2 0v-2.495l1.718 1.145a1 1 0 0 0 1.109-1.664l-2.827-1.886v-5.368l4.65 2.685.218 3.391a1 1 0 0 0 1 .935h.066a1 1 0 0 0 .933-1.062l-.132-2.06 2.161 1.247a1 1 0 0 0 1-1.732z" fill="#b0dfe3"/><path d="m22.16 17.634-1.845-1.066 1.557-.77a1 1 0 0 0 -.887-1.793l-2.752 1.361-4.099-2.366 4.1-2.366 2.751 1.366a1 1 0 1 0 .887-1.793l-1.557-.77 1.845-1.071a1 1 0 1 0 -1-1.732l-1.845 1.066.111-1.733a1 1 0 0 0 -2-.129l-.2 3.064-4.1 2.367v-4.734l2.554-1.7a1 1 0 1 0 -1.109-1.664l-1.445.964v-2.135a1 1 0 0 0 -2 0v2.132l-1.438-.964a1 1 0 0 0 -1.109 1.664l2.555 1.7v4.733l-4.099-2.365-.2-3.064a1 1 0 0 0 -2 .129l.118 1.735-1.845-1.066a1 1 0 0 0 -1 1.732l1.845 1.066-1.553.768a1 1 0 0 0 .883 1.8l2.752-1.361 4.099 2.361-4.1 2.366-2.751-1.361a1 1 0 0 0 -.883 1.795l1.557.77-1.849 1.064a1 1 0 1 0 1 1.732l1.845-1.066-.111 1.733a1 1 0 0 0 .933 1.067h.066a1 1 0 0 0 1-.935l.2-3.064 4.1-2.367v4.733l-2.555 1.7a1 1 0 0 0 1.109 1.664l1.446-.964v2.133a1 1 0 0 0 2 0v-2.132l1.445.964a1 1 0 1 0 1.109-1.664l-2.554-1.7v-4.736l4.1 2.367.2 3.064a1 1 0 0 0 1 .935h.066a1 1 0 0 0 .933-1.062l-.125-1.736 1.845 1.065a1 1 0 1 0 1-1.732z" fill="#b0dfe3"/><path d="m31.026 52.884-3.577-2.066 3.173-1.568a1 1 0 0 0 -.887-1.793l-4.368 2.159-7.13-4.116 7.13-4.116 4.368 2.159a.988.988 0 0 0 .442.1 1 1 0 0 0 .445-1.9l-3.173-1.568 3.577-2.066a1 1 0 1 0 -1-1.732l-3.578 2.065.228-3.532a1 1 0 1 0 -2-.128l-.314 4.862-7.129 4.117v-8.226l4.055-2.7a1 1 0 1 0 -1.11-1.664l-2.945 1.964v-4.135a1 1 0 1 0 -2 0v4.132l-2.945-1.964a1 1 0 0 0 -1.11 1.664l4.055 2.7v8.233l-7.13-4.117-.314-4.862a1 1 0 1 0 -2 .128l.228 3.532-3.57-2.062a1 1 0 0 0 -1 1.732l3.578 2.066-3.173 1.568a1 1 0 1 0 .887 1.793l4.368-2.159 7.13 4.116-7.13 4.116-4.368-2.159a1 1 0 1 0 -.887 1.793l3.173 1.568-3.578 2.066a1 1 0 1 0 1 1.732l3.578-2.065-.225 3.532a1 1 0 0 0 .934 1.062h.065a1 1 0 0 0 1-.936l.314-4.862 7.13-4.117v8.233l-4.055 2.7a1 1 0 0 0 1.11 1.664l2.945-1.964v4.137a1 1 0 0 0 2 0v-4.132l2.945 1.964a1 1 0 0 0 1.11-1.664l-4.055-2.7v-8.236l7.129 4.117.314 4.862a1 1 0 0 0 1 .936h.066a1 1 0 0 0 .933-1.062l-.228-3.532 3.578 2.065a1 1 0 1 0 1-1.732z" fill="#7cc9d1"/><g fill="#89c7c9"><circle cx="36" cy="6" r="2"/><circle cx="58" cy="30" r="2"/><circle cx="27" cy="29" r="2"/><circle cx="36" cy="61" r="2"/></g><circle cx="59.5" cy="57.5" fill="#b0dfe3" r="1.5"/><circle cx="40" cy="24" fill="#b0dfe3" r="3"/></g></svg>