<svg id="flat" height="512" viewBox="0 0 340 340" width="512" xmlns="http://www.w3.org/2000/svg"><path d="m73.458 97.1s-14.379 9.526-24.336 11.362a6.322 6.322 0 0 1 -6.5-9.563c8.8-14.207 35.231-44.626 78.752-66.284a1.447 1.447 0 0 0 -1.073-2.677c-26.573 8.188-78.201 28.962-108.493 73.027-10.059 14.635-3.208 39.274 22.792 36.015 29.9-3.747 40.291-14.822 62.858-28.75z" fill="#a0bcf2"/><path d="m73.458 97.1s78.506-68.145 168.042-56.571a20.344 20.344 0 0 1 17.709 18.722c2.663 37.5 2.263 132.186-62.954 176.929a70.016 70.016 0 0 0 -24.869 29.5c-6.985 16.03-9.611 38.808 7.828 65.8 0 0-77.708-21.868-54.9-110.265 7.539-29.221 3.815-60.331-11.6-86.277-8.241-13.88-22.867-25.8-39.256-37.838z" fill="#a0bcf2"/><path d="m294.536 121.8a44.767 44.767 0 0 1 25.464 2.133 19.707 19.707 0 0 1 12.62 18.178c-.072 13.854-15.069 31.849-99.861 22.054a.93.93 0 0 1 0-1.849c15.97-1.6 49.585-6.205 68.661-17.649a9.809 9.809 0 0 0 -.928-17.39 36.615 36.615 0 0 0 -6.081-2.1 1.735 1.735 0 0 1 .125-3.377z" fill="#6281cc"/><path d="m282.7 13.9a23.454 23.454 0 0 1 7.558 2.556 9.792 9.792 0 0 1 2.611 15.062 31.615 31.615 0 0 1 -11.717 7.853 1.329 1.329 0 0 0 .543 2.563c6.775-.288 16.991-1.887 26.37-8 11.079-7.215 6.723-24.44-6.469-25.325a50.386 50.386 0 0 0 -19.1 2.712 1.329 1.329 0 0 0 .204 2.579z" fill="#6281cc"/><path d="m307.367 58.578s-12.176 15.861 7 34.994c.003 0 16.917-21.147-7-34.994z" fill="#88a873"/><path d="m286.472 249.406s-9.818 16.868 11.828 27.694c0 0 9.571-22.91-11.828-27.694z" fill="#f29251"/><path d="m28.174 286.414s-9.566 24.42 22.154 29.2c0 .003 1.129-27.69-22.154-29.2z" fill="#88a873"/><path d="m54.105 182.44s-19.637 12.84-9.567 36.76c0 0 24.168-14.354 9.567-36.76z" fill="#f29251"/><circle cx="162.556" cy="18.394" fill="#88a873" r="4.173"/><circle cx="247.688" cy="15.65" fill="#f29251" r="4.173"/><circle cx="283.467" cy="87.587" fill="#6281cc" r="4.173"/><circle cx="311.367" cy="190.351" fill="#f29251" r="4.173"/><circle cx="201.397" cy="266.101" fill="#88a873" r="4.173"/><circle cx="252.964" cy="293.478" fill="#f29251" r="4.173"/><circle cx="212.086" cy="183.969" fill="#6281cc" r="4.173"/><circle cx="91.889" cy="281.272" fill="#88a873" r="4.173"/><circle cx="72.295" cy="160.36" fill="#6281cc" r="4.173"/><circle cx="17.263" cy="159.166" fill="#88a873" r="4.173"/><g fill="#6281cc"><path d="m84.058 149.917a3.5 3.5 0 0 1 -2.82-5.568c1.122-1.532 28.116-37.676 82.773-51.882a3.5 3.5 0 1 1 1.761 6.775c-52.268 13.585-78.628 48.889-78.888 49.243a3.49 3.49 0 0 1 -2.826 1.432z"/><path d="m272.129 77.615a3.5 3.5 0 0 1 -1.818-.511c-29.074-17.716-72.091-8.61-72.523-8.516a3.5 3.5 0 0 1 -1.5-6.838c1.869-.41 46.161-9.815 77.661 9.375a3.5 3.5 0 0 1 -1.824 6.49z"/><path d="m190.069 124.636a3.5 3.5 0 0 1 -1.273-6.762c1.643-.638 40.675-15.514 80.455-2.684a3.5 3.5 0 1 1 -2.149 6.662c-37.356-12.047-75.387 2.4-75.767 2.546a3.48 3.48 0 0 1 -1.266.238z"/><path d="m97.662 209.192a3.5 3.5 0 0 1 -2.515-5.931c1.04-1.073 26.031-26.172 83.1-26.172h.676a3.5 3.5 0 0 1 -.012 7 4.659 4.659 0 0 1 -.647 0c-53.9 0-77.858 23.809-78.095 24.051a3.5 3.5 0 0 1 -2.507 1.052z"/><path d="m87.546 241.272a3.5 3.5 0 0 1 -2.7-5.723c1.031-1.254 25.691-30.766 63.971-35.766a3.5 3.5 0 0 1 .907 6.942c-35.566 4.644-59.236 32.984-59.471 33.269a3.493 3.493 0 0 1 -2.707 1.278z"/><path d="m107.776 273.7a3.5 3.5 0 0 1 -2.317-6.122 61.861 61.861 0 0 1 38.541-13.426h.411a3.5 3.5 0 0 1 -.023 7c-.118 0-.254 0-.379 0a55.79 55.79 0 0 0 -33.927 11.686 3.493 3.493 0 0 1 -2.306.862z"/><path d="m230.862 228.026a3.481 3.481 0 0 1 -1.963-.6c-17.177-11.659-35.5-6.065-35.685-6.008a3.5 3.5 0 1 1 -2.11-6.674c.88-.278 21.774-6.653 41.727 6.891a3.5 3.5 0 0 1 -1.969 6.4z"/></g></svg>