<svg id="Capa_1" enable-background="new 0 0 512 512" height="512" viewBox="0 0 512 512" width="512" xmlns="http://www.w3.org/2000/svg"><g><g><path d="m270.673 326.369v-264.159c0-30.213-24.493-54.706-54.706-54.706-30.213 0-54.706 24.493-54.706 54.706v264.159c-25.804 17.533-42.756 47.121-42.756 80.669 0 53.827 43.635 97.462 97.462 97.462s97.462-43.635 97.462-97.462c0-33.548-16.953-63.136-42.756-80.669z" fill="#c0e3f8"/><path d="m215.96 504.496c-53.83 0-97.459-43.64-97.459-97.459 0-33.55 16.95-63.14 42.76-80.67v-264.157c0-15.11 6.12-28.79 16.02-38.69s23.57-16.02 38.68-16.02c-8.48 0-16.15 6.12-21.71 16.02s-8.99 23.58-8.99 38.69v264.158c-14.49 17.53-24 47.12-24 80.67 0 53.819 24.489 97.458 54.699 97.458z" fill="#a7d7f8"/><path d="m240.673 62.213v16.4h-49.41v-16.4c0-13.63 11.08-24.71 24.7-24.71 13.63 0 24.71 11.08 24.71 24.71z" fill="#f9f6f9"/><path d="m283.433 407.041c0 37.2-30.27 67.459-67.47 67.459s-67.459-30.26-67.459-67.459c0-22.38 11.07-43.26 29.62-55.86l13.14-8.93v-263.638h49.41v263.638l13.14 8.93c18.539 12.6 29.619 33.48 29.619 55.86z" fill="#e28086"/><path d="m215.96 474.504c-37.2 0-67.46-30.26-67.46-67.459 0-22.38 11.07-43.26 29.62-55.86l13.14-8.93v-263.639h13.24v263.638l-6.1 8.93c-8.61 12.6-13.74 33.48-13.74 55.86.001 37.19 14.03 67.45 31.3 67.46z" fill="#dd636e"/><path d="m471.682 103.204-60.988-60.989c-8.583-8.583-22.5-8.583-31.083 0l-60.988 60.989c-13.846 13.846-4.04 37.52 15.541 37.52h24.331v294.672c0 10.087 8.177 18.263 18.263 18.263h36.787c10.087 0 18.263-8.177 18.263-18.263v-294.671h24.331c19.583 0 29.389-23.675 15.543-37.521z" fill="#f5dd81"/><g fill="#f1cd6b"><path d="m341.235 103.204 60.988-60.989c1.299-1.298 2.73-2.376 4.235-3.282-8.447-5.081-19.563-4.003-26.848 3.282l-60.988 60.989c-13.846 13.846-4.04 37.52 15.542 37.52h22.613c-19.581.001-29.387-23.674-15.542-37.52z"/><path d="m381.108 435.396v-294.671h-22.613v294.671c0 10.087 8.177 18.263 18.263 18.263h22.613c-10.086 0-18.263-8.176-18.263-18.263z"/></g></g><g><path d="m105.72 311.747c-3.174-2.662-7.905-2.246-10.566.928-.802.957-1.671 1.854-2.582 2.665-4.675 4.164-10.598 6.274-17.604 6.274-18.562 0-33.664-15.102-33.664-33.664s15.102-33.664 33.664-33.664c6.747 0 13.253 1.986 18.816 5.745 3.434 2.319 8.094 1.417 10.414-2.016 2.319-3.433 1.416-8.095-2.016-10.414-8.053-5.44-17.463-8.315-27.214-8.315-26.833 0-48.664 21.831-48.664 48.664s21.831 48.664 48.664 48.664c10.644 0 20.181-3.483 27.582-10.074 1.452-1.294 2.831-2.716 4.098-4.228 2.662-3.173 2.246-7.904-.928-10.565z"/><path d="m122.874 245.5c12.937 0 23.462-10.525 23.462-23.462s-10.525-23.462-23.462-23.462-23.462 10.525-23.462 23.462 10.525 23.462 23.462 23.462zm0-31.924c4.666 0 8.462 3.796 8.462 8.462s-3.796 8.462-8.462 8.462-8.462-3.796-8.462-8.462 3.796-8.462 8.462-8.462z"/><path d="m278.175 322.491v-260.281c0-34.303-27.907-62.21-62.21-62.21-16.621 0-32.242 6.474-43.983 18.227-11.748 11.748-18.217 27.368-18.217 43.983v15.04c0 4.142 3.358 7.5 7.5 7.5s7.5-3.358 7.5-7.5v-15.04c0-12.609 4.909-24.462 13.826-33.379 8.91-8.919 20.762-13.831 33.373-13.831 26.032 0 47.21 21.178 47.21 47.21v264.16c0 2.484 1.23 4.808 3.285 6.204 24.712 16.791 39.465 44.628 39.465 74.466 0 49.604-40.356 89.96-89.96 89.96s-89.96-40.356-89.96-89.96c0-29.84 14.756-57.678 39.474-74.466 2.056-1.396 3.286-3.719 3.286-6.204v-219.12c0-4.142-3.358-7.5-7.5-7.5s-7.5 3.358-7.5 7.5v215.24c-26.851 19.769-42.76 51.078-42.76 84.55 0 57.875 47.085 104.96 104.96 104.96s104.96-47.085 104.96-104.96c.001-33.469-15.905-64.778-42.749-84.549z"/><path d="m248.173 62.209c0-17.758-14.448-32.206-32.206-32.206s-32.207 14.448-32.207 32.206v276.074l-9.854 6.695c-20.602 13.999-32.901 37.199-32.901 62.059 0 41.334 33.628 74.962 74.962 74.962s74.962-33.628 74.962-74.962c0-24.86-12.3-48.06-32.902-62.059l-9.854-6.695zm-32.207-17.206c9.487 0 17.206 7.719 17.206 17.206v8.905h-34.412v-8.905c0-9.487 7.719-17.206 17.206-17.206zm33.631 312.383c16.488 11.204 26.332 29.765 26.332 49.652 0 33.063-26.899 59.962-59.962 59.962s-59.962-26.899-59.962-59.962c0-19.887 9.844-38.448 26.332-49.652l13.139-8.928c2.055-1.396 3.285-3.719 3.285-6.204v-256.14h34.412v256.14c0 2.484 1.23 4.807 3.285 6.204z"/><path d="m476.987 97.896-60.986-60.976c-5.566-5.573-12.97-8.643-20.847-8.643-7.876 0-15.28 3.069-20.843 8.639l-60.991 60.98c-8.592 8.592-11.041 20.902-6.392 32.126 4.649 11.225 15.085 18.197 27.235 18.197h16.83v287.181c0 14.204 11.556 25.76 25.76 25.76h36.79c14.21 0 25.771-11.556 25.771-25.76v-15.57c0-4.142-3.357-7.5-7.5-7.5s-7.5 3.358-7.5 7.5v15.57c0 5.933-4.832 10.76-10.771 10.76h-36.79c-5.933 0-10.76-4.827-10.76-10.76v-294.68c0-4.142-3.357-7.5-7.5-7.5h-24.33c-6.059 0-11.06-3.341-13.378-8.938-2.317-5.596-1.144-11.495 3.141-15.779l60.994-60.983c2.732-2.736 6.367-4.243 10.233-4.243s7.501 1.507 10.237 4.247l60.988 60.978c4.283 4.287 5.456 10.188 3.137 15.787-2.318 5.593-7.317 8.932-13.372 8.932h-24.33c-4.143 0-7.5 3.358-7.5 7.5v249.11c0 4.142 3.357 7.5 7.5 7.5s7.5-3.358 7.5-7.5v-241.611h16.83c12.146 0 22.579-6.97 27.229-18.189 4.654-11.225 2.207-23.537-6.385-32.135z"/></g></g></svg>