<svg height="512" viewBox="0 0 58 60" width="512" xmlns="http://www.w3.org/2000/svg"><g id="Page-1" fill="none" fill-rule="evenodd"><g id="030---Facemask" fill-rule="nonzero"><path id="Shape" d="m11.93 12.06c-1.6710091 1.1089554-2.98414883 2.6791647-3.78 4.52l-5.34-3.42c-.4684922-.2987447-.79100183-.7795025-.88972895-1.3262989-.09872713-.5467964.0352925-1.1099832.36972895-1.5537011l.7-.93c.58104411-.78297541 1.64435034-1.02867964 2.51-.58z" fill="#607d8b"/><path id="Shape" d="m19.43 54.8c-.0998793.4518825-.3726741.846717-.76 1.1l-4.84 2.89c1.71-1.03.88-5.58-1.86-10.16s-6.36-7.46-8.07-6.43l4.84-2.9c.93-.56 2.4.03 4 1.4v.01c1.167816 1.0344476 2.2024253 2.21014 3.08 3.5v.01c.35.48.67.99.99 1.52 2.17 3.61 3.14 7.2 2.62 9.06z" fill="#7f8e94"/><path id="Shape" d="m13.83 58.79c-1.72 1.03-5.34-1.85-8.08-6.43s-3.57-9.14-1.85-10.16 5.33 1.85 8.07 6.43 3.57 9.13 1.86 10.16z" fill="#37474f"/><path id="Shape" d="m45.26 40.7v.01c-1.167816 1.0344476-2.2024253 2.21014-3.08 3.5-.04-.07-.09-.13-.13-.2l-1.54-2.37c4.77-10.91 6.89-19.77 5.7-23.37l-.1-.26c-.515769-1.1022493-1.334245-2.0351733-2.36-2.69-1.6454643-1.1035997-3.449509-1.9499833-5.35-2.51-6.1154866-1.9466847-12.6845134-1.9466847-18.8 0-1.900491.5600167-3.7045357 1.4064003-5.35 2.51-1.0232123.6577837-1.8409682 1.5898869-2.36 2.69l-.12.33c-1.16 3.51.95 12.37 5.72 23.3v.01l-1.54 2.36c-.04.07-.09.13-.13.2-.8775747-1.28986-1.912184-2.4655524-3.08-3.5v-.01c-2.97-7.23-6.63-18.04-4.74-23.7l.15-.42c.79585117-1.8408353 2.1089909-3.4110446 3.78-4.52.39-.28.8-.54 1.23-.79 1.652038-.9447117 3.4024452-1.7059041 5.22-2.27 6.9075368-2.21001288 14.3324632-2.21001288 21.24 0 1.8175548.5640959 3.567962 1.3252883 5.22 2.27.43.25.84.51 1.23.79 1.6710091 1.1089554 2.9841488 2.6791647 3.78 4.52l.15.42c1.89 5.66-1.77 16.47-4.74 23.7z" fill="#ffdc00"/><path id="Shape" d="m50 17-.15-.42c-.7958512-1.8408353-2.1089909-3.4110446-3.78-4.52-.39-.28-.8-.54-1.23-.79-1.652038-.9447117-3.4024452-1.7059041-5.22-2.27-3.9139678-1.24419109-8.0172443-1.78587776-12.12-1.6 3.0977902.12385854 6.1650463.66197366 9.12 1.6 1.8175548.5640959 3.567962 1.3252883 5.22 2.27.43.25.84.51 1.23.79 1.6710091 1.1089554 2.9841488 2.6791647 3.78 4.52l.15.42c1.89 5.66-1.77 16.47-4.74 23.7v.01c-.5082112.4407677-.9869092.9144549-1.433 1.418l1.223 1.882c.04.07.09.13.13.2.8775747-1.28986 1.912184-2.4655524 3.08-3.5v-.01c2.97-7.23 6.63-18.04 4.74-23.7z" fill="#fec108"/><path id="Shape" d="m42.18 44.21v.01c-.35.48-.67.99-.99 1.52-2.17 3.61-3.14 7.2-2.62 9.06-2.5149441 2.6020319-5.9523319 4.1106034-9.57 4.2-3.6176681-.0893966-7.0550559-1.5979681-9.57-4.2.52-1.86-.45-5.45-2.62-9.06-.32-.53-.64-1.04-.99-1.52v-.01c.04-.07.09-.13.13-.2l1.54-2.36v-.01l5.65-8.65c1.2927503-1.978515 3.4965862-3.1711098 5.86-3.1711098s4.5672497 1.1925948 5.86 3.1711098l5.65 8.65 1.54 2.37c.04.07.09.13.13.2z" fill="#607d8b"/><path id="Shape" d="m42.05 44.01-1.54-2.37-5.65-8.65c-1.5869609-2.4378441-4.5210144-3.6337898-7.36-3 1.7938709.3817608 3.3623852 1.4610138 4.36 3l5.65 8.65 1.54 2.37c.04.07.09.13.13.2v.01c-.35.48-.67.99-.99 1.52-2.17 3.61-3.14 7.2-2.62 9.06-2.1720277 2.2096744-5.0051225 3.6511474-8.07 4.106.4976022.0620326.9985465.0934251 1.5.094 3.6176681-.0893966 7.0550559-1.5979681 9.57-4.2-.52-1.86.45-5.45 2.62-9.06.32-.53.64-1.04.99-1.52v-.01c-.04-.07-.09-.13-.13-.2z" fill="#37474f"/><path id="Shape" d="m40.51 41.64-5.65-8.65c-1.2927503-1.978515-3.4965862-3.1711098-5.86-3.1711098s-4.5672497 1.1925948-5.86 3.1711098l-5.65 8.65c-4.77-10.93-6.88-19.79-5.72-23.3l.12-.33c.5190318-1.1001131 1.3367877-2.0322163 2.36-2.69 1.6454643-1.1035997 3.449509-1.9499833 5.35-2.51 6.1154866-1.9466847 12.6845134-1.9466847 18.8 0 1.900491.5600167 3.7045357 1.4064003 5.35 2.51 1.025755.6548267 1.844231 1.5877507 2.36 2.69l.1.26c1.19 3.6-.93 12.46-5.7 23.37z" fill="#00bcd4"/><path id="Shape" d="m20.14 32.99-3.825 5.856c.374.917.76 1.844 1.175 2.794l5.65-8.65c.9976148-1.5389862 2.5661291-2.6182392 4.36-3-2.8389856-.6337898-5.7730391.5621559-7.36 3z" fill="#00838f"/><path id="Shape" d="m46.21 18.27-.1-.26c-.515769-1.1022493-1.334245-2.0351733-2.36-2.69-1.6454643-1.1035997-3.449509-1.9499833-5.35-2.51-3.0392489-.968695-6.2101093-1.4611903-9.4-1.46-.5 0-1 .033-1.5.058 2.6830969.1203506 5.3389411.5910065 7.9 1.4 1.900491.5600167 3.7045357 1.4064003 5.35 2.51 1.025755.6548267 1.844231 1.5877507 2.36 2.69l.1.26c1.087 3.287-.594 10.965-4.523 20.578l1.823 2.794c4.77-10.91 6.89-19.77 5.7-23.37z" fill="#00838f"/><path id="Shape" d="m55.19 13.16-5.34 3.42c-.7958512-1.8408353-2.1089909-3.4110446-3.78-4.52l6.43-3.29c.8656497-.44867964 1.9289559-.20297541 2.51.58l.7.93c.3344364.4437179.4684561 1.0069047.369729 1.5537011-.0987272.5467964-.4212368 1.0275542-.889729 1.3262989z" fill="#607d8b"/><path id="Shape" d="m45 11-.16.27c-1.652038-.9447117-3.4024452-1.7059041-5.22-2.27-6.9075368-2.21001288-14.3324632-2.21001288-21.24 0-1.8175548.5640959-3.567962 1.3252883-5.22 2.27l-.16-.27s5-10 16-10 16 10 16 10z" fill="#fec108"/><path id="Shape" d="m54.1 42.2c-1.71-1.03-5.33 1.85-8.07 6.43s-3.57 9.13-1.86 10.16l-4.84-2.89c-.3873259-.253283-.6601207-.6481175-.76-1.1-.52-1.86.45-5.45 2.62-9.06.32-.53.64-1.04.99-1.52v-.01c.8775747-1.28986 1.912184-2.4655524 3.08-3.5v-.01c1.6-1.37 3.07-1.96 4-1.4z" fill="#7f8e94"/><path id="Shape" d="m52.25 52.36c-2.74 4.58-6.36 7.46-8.08 6.43s-.88-5.58 1.86-10.16 6.36-7.46 8.07-6.43.89 5.57-1.85 10.16z" fill="#37474f"/><path id="Shape" d="m34 44c-.5522847 0-1-.4477153-1-1v-1c0-2.209139-1.790861-4-4-4s-4 1.790861-4 4v1c0 .5522847-.4477153 1-1 1s-1-.4477153-1-1v-1c0-3.3137085 2.6862915-6 6-6s6 2.6862915 6 6v1c0 .5522847-.4477153 1-1 1z" fill="#f5f5f5"/><path id="Shape" d="m16 26c-.3633468-.0003624-.6979068-.1977813-.8738872-.515668-.1759804-.3178866-.1656869-.7062147.0268872-1.014332l5-8c.1893508-.3036758.5263272-.4832663.8839935-.4711216s.6816845.2141795.85.53c.1683155.3158204.1553573.6974458-.0339935 1.0011216l-5 8c-.1836786.2938946-.5064327.471731-.853.47z" fill="#f5f5f5"/><path id="Shape" d="m18 32c-.3633468-.0003624-.6979068-.1977813-.8738872-.515668-.1759804-.3178866-.1656869-.7062147.0268872-1.014332l10-16c.2927109-.469442.910558-.6127109 1.38-.32s.6127109.910558.32 1.38l-10 16c-.1836786.2938946-.5064327.471731-.853.47z" fill="#f5f5f5"/><g fill="#000"><path id="Shape" d="m47.035 17.629c-.584845-1.2767516-1.5214181-2.3604013-2.7-3.124-1.7288988-1.1642759-3.6258814-2.0569538-5.625-2.647-6.3147558-2.0000134-13.0932442-2.0000134-19.408 0-2.0007838.5882621-3.8997634 1.4792413-5.631 2.642-1.1898955.7739172-2.1339362 1.8716551-2.721 3.164l-.13.357c-1.087 3.282.33 10.392 3.888 19.508.1238502.341006.4226795.5881849.7808604.6458946s.719523-.0831032.9442104-.3679532c.2246875-.28485.2774719-.6690507.1379292-1.0039414-3.933-10.078-4.571-15.984-3.862-18.121l.105-.292c.4524329-.9223591 1.1498765-1.7024858 2.016-2.255 1.5596286-1.0439811 3.2692572-1.8441682 5.07-2.373 5.9197415-1.8750177 12.2742585-1.8750177 18.194 0 1.8032788.5288359 3.5153124 1.3297183 5.077 2.375.8613475.5421174 1.5540636 1.3141494 2 2.229l.084.216c.928 2.813-.54 9.8-3.832 18.223-.2010316.5144532.0530468 1.0944684.5675 1.2955s1.0944684-.0530468 1.2955-.5675c3.559-9.11 4.968-16.245 3.852-19.621z"/><path id="Shape" d="m33.44 52.542c-2.6438103 1.9348606-6.2361897 1.9348606-8.88 0-.4578441-.3092795-1.0797205-.1888441-1.389.269s-.1888441 1.0797205.269 1.389c3.3177616 2.4012843 7.8022384 2.4012843 11.12 0 .2959946-.2000687.4627694-.5428511.4375021-.8992242-.0252673-.3563732-.2387381-.6721957-.56-.8285001s-.7015076-.1293445-.9975021.0707243z"/><path id="Shape" d="m55.812 8.748c-.8765888-1.16882951-2.4677163-1.53620769-3.768-.87l-5.919 3.03c-.053-.035-.108-.069-.162-.1-.0113407-.0866539-.0342097-.1714039-.068-.252-.216-.434-5.409-10.556-16.895-10.556s-16.679 10.122-16.895 10.553c-.0337841.0802511-.0566545.16467-.068.251l-.162.1-5.919-3.026c-1.30051781-.66599457-2.89169638-.29818233-3.768.871l-.7.929c-.49864658.667535-.6972116 1.5123822-.54812773 2.3321537.14908386.8197716.63238561 1.5406143 1.33412773 1.9898463l4.692 3.005c-1.53 5.222.945 13.965 3.749 21.294-.80898564-.332083-1.72462813-.2813773-2.492.138l-4.841 2.9c-.86.514-1.768 1.761-1.216 4.785.51289482 2.3894939 1.43478768 4.6724051 2.725 6.748 2.3 3.838 5.589 7.137 8.128 7.137.3695818-.0050191.733655-.0903221 1.067-.25.0891996-.023772.1746779-.0597806.254-.107l4.841-2.9c.1817289-.1111887.3481394-.2456618.495-.4 2.5628338 2.3066251 5.8763202 3.6037321 9.324 3.65 3.4472885-.0454422 6.760727-1.3414643 9.324-3.647.1484036.1546836.3165127.2891709.5.4l4.841 2.9c.0796553.0475034.1654568.0838429.255.108.3332233.1588908.6968695.2438325 1.066.249 2.539 0 5.831-3.3 8.128-7.137 1.2901062-2.0752887 2.2119956-4.3578529 2.725-6.747.552-3.024-.356-4.271-1.216-4.785l-4.841-2.9c-.7679481-.419042-1.6840251-.4690165-2.493-.136 2.8-7.321 5.273-16.056 3.749-21.3l4.688-3.005c.7023142-.4498649 1.1856509-1.1717951 1.3340138-1.9925338.1483628-.8207387-.0516415-1.6661947-.5520138-2.3334662zm-26.812-6.748c6.854 0 11.272 4.193 13.463 6.992-.8-.335-1.636-.656-2.537-.944-7.1089314-2.25849476-14.7430686-2.25849476-21.852 0-.9.288-1.735.609-2.537.944 2.191-2.799 6.609-6.992 13.463-6.992zm-26.092 9.655c-.05025537-.2736558.01648415-.5558479.184-.778l.7-.928c.29191101-.38996271.82233795-.51285622 1.256-.291l5.052 2.587c-.94152495.8228796-1.73678485 1.7993722-2.352 2.888l-4.395-2.814c-.23533036-.1486791-.39693701-.389818-.445-.664zm3.7 40.187c-1.16786264-1.8691126-2.0047834-3.9255561-2.474-6.079-.289-1.584-.07-2.5.276-2.709s1.26.034 2.518 1.037c1.67617781 1.4314851 3.092645 3.1415977 4.187 5.055 1.168697 1.8684373 2.0059969 3.9246429 2.475 6.078.289 1.585.069 2.5-.276 2.71-.761.455-3.825-1.276-6.707-6.092zm11.546 3.2-2.443 1.458c-.0035021-.5481656-.0553699-1.094953-.155-1.634-.5126964-2.3892416-1.4346065-4.6718572-2.725-6.747-1.2189883-2.1177994-2.7944596-4.0092446-4.657-5.591-.42769955-.3426035-.88480689-.646784-1.366-.909l2.442-1.461c.673-.4 3.146.91 5.7 4.55l.011.014c.33.471.66.975.989 1.524 2.886 4.817 2.968 8.334 2.203 8.792zm10.846 2.958c-3.1806202-.0693524-6.2153807-1.3476921-8.487-3.575.31-2.415-.937-6.02-2.841-9.2-.208-.348-.427-.689-.65-1.025l6.953-10.66c1.1077233-1.6977579 2.9978264-2.7213761 5.025-2.7213761s3.9172767 1.0236182 5.025 2.7213761l6.954 10.66c-.224.337-.443.678-.651 1.027-1.9 3.183-3.151 6.788-2.841 9.2-2.2719333 2.2265756-5.3066566 3.5041844-8.487 3.573zm24.867-12.237c-.4692166 2.1534439-1.3061374 4.2098874-2.474 6.079-2.882 4.817-5.94 6.547-6.7 6.092-.346-.207-.566-1.125-.277-2.71.4690031-2.1533571 1.306303-4.2095627 2.475-6.078 1.094355-1.9134023 2.5108222-3.6235149 4.187-5.055.611863-.5828893 1.3851213-.9679503 2.219-1.105.1043154-.0049485.2080135.0185564.3.068.34.207.559 1.125.27 2.709zm-5.117-5.606 2.442 1.461c-.4811931.262216-.9383005.5663965-1.366.909-1.8625404 1.5817554-3.4380117 3.4732006-4.657 5.591-1.2903935 2.0751428-2.2123036 4.3577584-2.725 6.747-.0996301.539047-.1514979 1.0858344-.155 1.634l-2.442-1.461c-.765-.458-.683-3.975 2.2-8.789.329-.55.66-1.054.99-1.525l.01-.013c2.553-3.644 5.028-4.954 5.703-4.554zm-4.331-.045c-.7928543.7208716-1.5231384 1.5076916-2.183 2.352l-6.536-10.02c-1.4769644-2.2636772-3.9971019-3.6285014-6.7-3.6285014s-5.2230356 1.3648242-6.7 3.6285014l-6.534 10.02c-.6608058-.8453621-1.3917294-1.6334883-2.185-2.356-4.345-10.628-5.992-18.718-4.639-22.773l.137-.385c.72488369-1.6619473 1.9168203-3.0776109 3.431-4.075 1.8972405-1.2828787 3.979229-2.2685691 6.174-2.923 6.7122588-2.1309832 13.9197412-2.1309832 20.632 0 2.1949901.6546729 4.2772727 1.6403428 6.175 2.923 1.5056069.9909025 2.6926024 2.3959884 3.418 4.046l.143.4c1.359 4.069-.288 12.161-4.633 22.791zm10.228-27.793-4.39 2.812c-.6172574-1.0880604-1.4141724-2.0638333-2.357-2.886l5.052-2.587c.4334279-.22206923.9638037-.09960984 1.256.29l.7.929c.1667598.222466.2333748.5043147.1838566.7778981s-.210699.5142014-.4448566.6641019z"/><path id="Shape" d="m27 47h4c.5522847 0 1-.4477153 1-1s-.4477153-1-1-1h-4c-.5522847 0-1 .4477153-1 1s.4477153 1 1 1z"/><path id="Shape" d="m27 51h4c.5522847 0 1-.4477153 1-1s-.4477153-1-1-1h-4c-.5522847 0-1 .4477153-1 1s.4477153 1 1 1z"/></g></g></g></svg>