<svg id="Capa_1" enable-background="new 0 0 512 512" height="512" viewBox="0 0 512 512" width="512" xmlns="http://www.w3.org/2000/svg"><g><g><path d="m256.034 384.12c34.887 0 64.945-46.428 78.593-76.192h-5.687c-11.985 0-21.701-9.716-21.701-21.701v-21.739c-17.963 12.287-84.516 12.287-102.479 0v21.739c0 11.985-9.716 21.701-21.701 21.701h-5.619c13.649 29.764 43.707 76.192 78.594 76.192z" fill="#ffece4"/></g><g><path d="m353.448 189.601h-3.115l-2.464-63.911h24.08c11.89 0 21.528 9.638 21.528 21.528v2.355c0 22.107-17.922 40.028-40.029 40.028z" fill="#eaac9d"/></g><g><path d="m158.552 189.601h3.115l8.586-63.911h-30.201c-11.89 0-21.528 9.638-21.528 21.528v2.355c-.001 22.107 17.921 40.028 40.028 40.028z" fill="#ffddce"/></g><g><path d="m352.292 163-7.224-60.933-68.942-45.667-97.148 7.091-19.445 97.151 2.965 40.256c1.713 23.261 16.233 43.13 34.17 57.582 19.829 15.976 43.868 21.596 59.365 21.596 15.515 0 39.524-5.641 59.365-21.651 17.906-14.448 32.391-34.296 34.102-57.528z" fill="#ffece4"/></g><g><path d="m339.542 130.572c-7.086-7.086-11.344-11.504-11.344-21.525l1.454-8.623c0-4.103-13.221 3.456-15.506.407l-5.852 79.463c-3.607 48.975-63.984 82.914-93.501 82.914-4.364 0-9.402-.742-14.832-2.164 19.139 14.408 41.424 19.032 56.073 19.032 15.515 0 39.524-5.641 59.365-21.651 17.906-14.447 32.391-34.296 34.102-57.528l2.791-37.897z" fill="#ffddce"/></g><g><path d="m254.734.008c-13.884.17-26.974 3.076-38.813 8.187-7.802 3.369-12.853 11.056-12.853 19.554v.77c0 1.213-.983 2.195-2.195 2.195-12.503 0-24.065 6.556-30.572 17.233-10.715 17.581-16.215 38.712-14.563 61.143l3.796 51.551 21.083-21.083c7.086-7.086 11.066-16.696 11.066-26.717v-15.769c0-6.524 3.479-12.551 9.129-15.813 6.413-3.703 13.852-7.998 13.852-7.998 1.093-.631 2.439-.631 3.532 0l6.443 3.72c18.754 10.827 40.027 16.528 61.683 16.528h13.2c10.085 0 18.261 8.176 18.261 18.261v1.071c0 10.021 3.981 19.631 11.066 26.717l23.443 23.442 4.05-54.995c4.326-58.742-42.531-108.721-101.608-107.997z" fill="#aa7a63"/></g><g><path d="m279.161 2.673c23.996 20.007 38.465 50.916 35.974 84.728l-.989 13.431c2.285 3.049 3.638 6.836 3.638 10.939v1.071c0 10.021 3.981 19.631 11.066 26.717l23.442 23.441 4.05-54.995c3.709-50.361-30.202-94.28-77.181-105.332z" fill="#986b54"/></g><g><path d="m442.542 461.569v-81.152c0-40.034-32.454-72.489-72.489-72.489h-35.426c-13.648 29.764-43.706 50.437-78.593 50.437s-64.945-20.673-78.593-50.437h-35.494c-40.034 0-72.489 32.454-72.489 72.489v81.152c28.849 0 65.871 50.431 65.871 50.431h241.409s36.953-50.431 65.804-50.431z" fill="#4073c8"/></g><g><path d="m323.247 491.396h-187.918v20.604h241.409l6.726-20.901-6.726-20.901c-13.974 13.145-32.792 21.198-53.491 21.198z" fill="#3b66c1"/></g><g><path d="m380.176 308.63c13.075 13.112 21.158 31.204 21.158 51.184v53.495c0 18.217-6.238 34.977-16.695 48.261l17.803 8.629 40.099-8.629v-81.152c.001-36.6-27.122-66.864-62.365-71.788z" fill="#3b66c1"/></g><g><path d="m492.861 260.789c8.788 0 15.864-7.331 15.445-16.211-.392-8.317-7.556-14.715-15.882-14.715h-107.24c-8.326 0-15.49 6.398-15.882 14.715-.418 8.88 6.657 16.211 15.445 16.211h56.588c-10.205 0-18.832 8.001-19.111 18.203-.29 10.584 8.203 19.255 18.722 19.255h37.938c-9.105 0-16.436 7.595-16.002 16.795.406 8.617 7.829 15.246 16.455 15.246h29.682c1.646 0 2.981-1.335 2.981-2.981v-63.537c0-1.647-1.335-2.981-2.981-2.981z" fill="#617881"/></g><g><path d="m39.742 260.789c-8.788 0-15.864-7.331-15.445-16.211.392-8.317 7.556-14.715 15.882-14.715h66.033c8.326 0 15.49 6.398 15.882 14.715.418 8.88-6.657 16.211-15.445 16.211h-35.985c10.205 0 18.831 8.001 19.111 18.203.29 10.584-8.203 19.255-18.722 19.255h-37.937c9.105 0 16.436 7.595 16.002 16.795-.406 8.617-7.829 15.246-16.455 15.246h-29.682c-1.646 0-2.981-1.335-2.981-2.981v-63.536c0-1.647 1.335-2.981 2.981-2.981h36.761z" fill="#617881"/></g><g><path d="m19.139 69.499c-8.788 0-15.864 7.331-15.445 16.211.392 8.317 7.556 14.715 15.882 14.715h55.731c8.326 0 15.49-6.398 15.882-14.715.418-8.88-6.657-16.211-15.445-16.211h-18.933 55.06c10.205 0 18.831-8.001 19.111-18.203.29-10.584-8.203-19.255-18.722-19.255h-79.144c9.105 0 16.436-7.595 16.002-16.795-.406-8.617-7.829-15.246-16.455-15.246h-29.682c-1.646 0-2.981 1.335-2.981 2.981v63.536c0 1.646 1.335 2.981 2.981 2.981h16.158z" fill="#617881"/></g><g><path d="m127.603 469.296c-4.267 0-7.726-3.459-7.726-7.726v-50.431c0-4.267 3.459-7.726 7.726-7.726s7.726 3.459 7.726 7.726v50.431c0 4.267-3.459 7.726-7.726 7.726z" fill="#3b66c1"/></g><g><path d="m384.397 469.295c-4.268 0-7.726-3.459-7.726-7.726v-50.43c0-4.267 3.459-7.726 7.726-7.726 4.268 0 7.726 3.459 7.726 7.726v50.43c.001 4.267-3.458 7.726-7.726 7.726z" fill="#3b66c1"/></g><g><g><path d="m256.034 209.69c-4.267 0-7.726-3.459-7.726-7.726s3.459-7.726 7.726-7.726c5.284 0 9.584-4.299 9.584-9.584v-30.385c0-4.267 3.459-7.726 7.726-7.726s7.726 3.459 7.726 7.726v30.385c0 13.804-11.231 25.036-25.036 25.036z" fill="#ffddce"/></g></g><g><path d="m192.514 67.355c-2.134 3.695-.868 8.421 2.828 10.554l5.636 3.254c6.375-3.681 13.687-7.902 13.687-7.902 1.093-.631 2.439-.631 3.532 0l-15.128-8.734c-3.697-2.134-8.422-.868-10.555 2.828z" fill="#986b54"/></g><g><g><path d="m210.38 220.095c-2.593 0-5.125-1.305-6.586-3.674l-53.412-86.678c-2.238-3.633-1.108-8.392 2.525-10.631 3.632-2.238 8.392-1.108 10.631 2.525l53.412 86.678c2.238 3.633 1.108 8.392-2.525 10.631-1.263.778-2.663 1.149-4.045 1.149z" fill="#d0e2e7"/></g></g><g><g><path d="m308.738 208.545c-1.383 0-2.783-.371-4.046-1.149-3.633-2.239-4.763-6.998-2.524-10.631l46.295-75.128c2.238-3.633 6.999-4.764 10.631-2.525 3.633 2.239 4.763 6.998 2.524 10.631l-46.295 75.128c-1.46 2.369-3.992 3.674-6.585 3.674z" fill="#d0e2e7"/></g></g><g><path d="m256.034 391.847c-23.687 0-46.683-6.983-66.502-20.196-3.55-2.367-4.51-7.163-2.143-10.714 2.366-3.55 7.164-4.509 10.714-2.143 17.272 11.515 37.304 17.601 57.931 17.601 19.51 0 38.624-5.494 55.276-15.888 3.62-2.261 8.387-1.158 10.646 2.463 2.26 3.62 1.157 8.386-2.463 10.645-19.11 11.927-41.053 18.232-63.459 18.232z" fill="#3b66c1"/></g><g><path d="m196.669 258.479c19.829 15.976 43.833 25.332 59.331 25.332 15.515 0 36.358-11.802 56.199-27.812l3.002-61.794c.116-2.379-1.444-4.517-3.744-5.133l-43.008-11.524c-8.133-2.179-16.697-2.179-24.83 0l-43.2 11.575c-2.212.593-3.75 2.597-3.75 4.888z" fill="#f1f4f6"/></g><g><path d="m281.07 184.653v-3.722l-12.622-3.382c-.938-.252-1.883-.474-2.831-.667v7.771c0 5.285-4.3 9.584-9.584 9.584-4.267 0-7.726 3.459-7.726 7.726s3.459 7.726 7.726 7.726c13.806.001 25.037-11.231 25.037-25.036z" fill="#dfeaef"/></g><g><path d="m315.399 258.425v-64.412c0-2.29-1.538-4.295-3.75-4.888l-4.393-1.177c-8.879 44.821-64.509 75.261-92.462 75.261-4.364 0-9.402-.742-14.832-2.164 19.139 14.408 41.39 22.768 56.039 22.768 15.514-.001 39.556-9.379 59.398-25.388z" fill="#dfeaef"/></g><g><path d="m69.458 461.569v44.547c0 3.249 2.634 5.884 5.884 5.884h59.987v-50.431s-37.022 0-65.871 0z" fill="#ffece4"/></g><g><path d="m376.738 461.569v50.431h59.92c3.249 0 5.884-2.634 5.884-5.884v-44.547c-28.851 0-65.804 0-65.804 0z" fill="#ffece4"/></g><g><path d="m69.458 491.396v14.72c0 3.249 2.634 5.884 5.884 5.884h59.987v-20.604z" fill="#ffddce"/></g><g><path d="m384.64 461.569c-2.417 3.07-5.059 5.955-7.902 8.629v41.802h59.92c3.249 0 5.884-2.634 5.884-5.884v-44.547z" fill="#ffddce"/></g></g></svg>